# xmcd
#
# Track frame offsets:
#	150
#	14190
#	25485
#	43379
#	56965
#	67610
#	77653
#	92543
#	106101
#	119340
#	128637
#	144017
#	159458
#	173204
#	185741
#	197526
#	211212
#	225191
#	238771
#	247249
#	261364
#	276384
#	286535
#	300652
#	312790
#	327651
#	342896
#	359610
#
# Disc length: 4929 seconds
#
# Revision: 2
# Processed by: cddbd v1.5.2PL0 Copyright (c) Steve Scherf et al.
# Submitted via: EasyCDDAExtractor 16.0.6.1
#
DISCID=9c133f1c
DTITLE=패티킴 - 패티킴 Collection(Mirinae)
DYEAR=2013
DGENRE=R&B
TTITLE0=패티킴 - 사랑하는 당신이
TTITLE1=패티킴 - 9월의 노래
TTITLE2=패티킴 - 가시나무 새
TTITLE3=패티킴 - 가을을 남기고 떠난 사람
TTITLE4=패티킴 - 가을의 연인
TTITLE5=패티킴 - 람디담디담
TTITLE6=패티킴 - 못잊어
TTITLE7=패티킴 - 바닷가에서
TTITLE8=패티킴 - Padre
TTITLE9=패티킴 - 별들에게 물어봐
TTITLE10=패티킴 - 보리밭
TTITLE11=패티킴 - 빛과 그림자
TTITLE12=패티킴 - 사랑은 생명의 꽃
TTITLE13=패티킴 - 사랑이란 두글자
TTITLE14=패티킴 - 사랑하는 당신이
TTITLE15=패티킴 - 사랑하는 마리야
TTITLE16=패티킴 - 살짜기 옵서예
TTITLE17=패티킴 - 서울의 모정
TTITLE18=패티킴 - 서울의 찬가
TTITLE19=패티킴 - 영원한 내 조국
TTITLE20=패티킴 - 이별
TTITLE21=패티킴 - 초우
TTITLE22=패티킴 - 추억속에 혼자 걸었네
TTITLE23=패티킴 - 하얀집(Casa Bianca)
TTITLE24=패티킴 - 하와이 연정
TTITLE25=패티킴 - 호반에서 만난 사람
TTITLE26=뱍경희 - 저 꽃속에 찬란한 빛이
TTITLE27=현미 - 밤안개
EXTD=
EXTT0=
EXTT1=
EXTT2=
EXTT3=
EXTT4=
EXTT5=
EXTT6=
EXTT7=
EXTT8=
EXTT9=
EXTT10=
EXTT11=
EXTT12=
EXTT13=
EXTT14=
EXTT15=
EXTT16=
EXTT17=
EXTT18=
EXTT19=
EXTT20=
EXTT21=
EXTT22=
EXTT23=
EXTT24=
EXTT25=
EXTT26=
EXTT27=
PLAYORDER=
